<svg id="Ebene_1" xmlns="http://www.w3.org/2000/svg" viewBox="0 0 400 115.3"><style>.st0{fill:#AE0F0A;} .st1{fill-rule:evenodd;clip-rule:evenodd;fill:#AE0F0A;} .st2{fill:#6F6F6E;}</style><title>alfried_krupp_logo</title><path class="st0" d="M55.7 10.2c-1 .8-2.1.4-3.2.6.5.3 2.2.5 2.7.5-.9.8-1.9.5-3 .5.3.3 2 .5 2.5.6-1 .8-1.7.3-2.7.5.4.3 1.7.6 2.2.6-.8.8-1.6.5-2.5.6.5.3 1.4.5 2 .6-.6.7-1.6.8-2.4.8-5.8.2-5.7-5.4.8-5.6 1 0 2.5 0 3.6.3z"/><path class="st0" d="M56.3 10.2c2.4.1 6.3.4 6.2-3 1.5 4.3-4.6 3.9-7.1 3.7 0 0-.1 0 0 0 .3-.2.6-.4.9-.7z"/><path class="st0" d="M55.8 11.3c3.8.5 9.6.6 8.7-4.6 0-.1 0 0 0 0 1.9 3.4-1 5.3-4.1 5.6-1.8.2-3.8 0-5.6-.3.5-.1.8-.3 1-.7z"/><path class="st0" d="M55.2 12.4c2.6.4 5.7.6 8.2-.4.9-.3 1.6-.8 2.2-1.6.2-.2.4-.5.5-.8l.1-.3v-.1c-.2 5.1-8.7 4.7-11.9 3.8.3 0 .9-.3.9-.6z"/><path class="st0" d="M54.8 13.6c3.2.6 6 .5 9.1-.4-1.4 2-8.2 1.5-10.1 1 .4-.1.7-.3 1-.6z"/><path class="st0" d="M54.3 14.7c1.8.2 3.7.4 5.4.2-.6.5-5.4.6-6.4.5.3 0 .8-.4 1-.7zm5 .8c1.4 1.7 4 2 5.1-.1 0 3.8-4.8 1.7-6.3.2l1.2-.1z"/><path class="st0" d="M57.4 15.7c3 2.9 6.9 3.5 9.9.4-1.5 4.6-9.1 2.9-11.1-.3l1.2-.1z"/><path class="st0" d="M55.6 15.9c2.3 2.8 5.8 4.2 9.4 3.6-1.6 1.8-6.3.1-8-.9-1-.6-1.9-1.6-2.6-2.6l1.2-.1z"/><path class="st0" d="M55 17.1c1.3 1.8 2.5 2.4 4.5 3.2-2.4 0-4-.9-4.5-3.2zm1.3-14.7c1.2 0 .7-1.4 2.4-1.3-.8.5-.1 2.4-1.2 2.2.1-.6.3-1.2.6-1.7-.5.3-.5 1.1-1.1 1.1-.2 0-.7-.2-.7-.3zm-4.4 5.2c-1-.9.4-1.1.7-1.6l.1-.1c.1 0 .3.2.3.3.7.8-1.1.4-1.1 1.4z"/><path class="st0" d="M53.1 2.6c.4.4.5 1.2.3 1.7-.6-.2-1.3-.1-1.8.1.7 0 3.5.5 2.8 1.8-.4.8-1.4-.5-1.7-.7-.6-.3-2.3-.9-2.1.2-1.8-1.5.7-3.6 2.5-3.1z"/><path class="st0" d="M53.7 4.4l.1-.4c.6.5 1.4.7 2.1.7.1-.6.4-1.6 0-2.2C58 3.5 57.1 5 58 5c.7 0 .9-1.5 1.9-1.4-.7-.3-1.6.6-2 1.1 0-.3-.1-.7-.2-1 1.1-1 2.2-.1 2.9-.7-.1 1.3-.9.7-1.4 1.4-.3.4-.5.9-.9 1.2-.5.4-.5-.1-.7-.1-.4.2.1.5.3.5.2.1.3 0 .5.2.5.4.2.4.9.5-.2 1.3-1 .3-1.3.4-.5.2.5.8.9.9-.3.9-.6.6-1.2.9-.3.2-.2.8-1 .5.6-.7 1.2-2.1.8-3.1-.1.7-.8 2.8-1.4 3-3-.3-7.5-.6-9.3 2.5.5-3 3.9-3.8 6.4-4.3 1.8 0 2.4-2.1.5-3.1zm-3.8 30.7c.9-.1 1.5.1 2.4.3 1.9.4 4.6 0 6.4-.6-2.9-.8-2.3-4.3.2-5.3 1.2-.5 2 .6.7 1.2.9.2 1 .4 1.5 1.1.3-1 0-.9.9-1.6-2.9.1.4-3.2 2.6-2-.1-1.2 0-.9.5-1.9-1.1.4-1.1.5-2.1-.2.1.3.3.7.1 1-.4.8-5.6 1.8-6.5 1.9.1 1.8-1 1.5-1.2 1.9-.1.1 0 .3 0 .5-.1.4-.8.3-.5 1 .1.3.4.5.6.6-.9.2-2.2 0-1.9-1.2-1.7-.3-1.3 1.5-1.8 2.2-.5.4-1.4.7-1.9 1.1z"/><path class="st0" d="M59.9 30.2l-1.1.7c1.4.3 1.6.7 2.3 1.8.4-1.7.3-1.5 1.5-2.6l-1.4-.2c-.2-1.3.9-.5 1.6-.9.1.4.6.7.9.8-.5.5-.8 1-.6 1.7l-.6.5-.1.7c-.7.2-.8.7-1 1.3-.5-.5-.8-.8-1.5-.8l-.4-.9-.8-.1c0-.6-.4-.9-1-1.2.3-.1.7-.4.5-.8.4-.2 1.5-.9 1.7 0zm-11.7 0l-1.3.5c1.3.7 1.2 1 1.7 2.3.8-1.5.5-1.4 2.1-2.1l-1-.4c-.6-.3-.1-1.2.7-1 .2 0 0 .6.2.8.2.2.9.4 1.2.4-.5.3-.8.9-.5 1.4l-1.3.3-.1.8c-.7.3-.9.5-1.3 1.1-.3-.5-.7-.9-1.3-1.1v-.8l-.8-.2c0-.7-.2-1.1-.7-1.5.5-.3.8-.6.9-1.1.2-.1 2.1-.3 1.5.6zm-3.4-4c-.5 1.4-.8 1.5-2.2 1.7 1.7.9 1.2.3 2 2.2l.7-1.3c.5 0 .7.2.9.6-.4 1.1-1.1.9-1.6 1.7-.4-.6-.8-1-1.5-.9l-.1-1.1-.8-.1c-.2-.6-.5-.8-1-1.2.4-.2 1.1-.6 1.3-1h.9l.1-.8c.6 0 1-.4 1.3-.8.3.5.6.8 1.1.9l.3.8c-.5 1.4-1.2-.1-1.4-.7zm19.1 2l1 .6c-.1-2.3.3-1.1.8-2.9-2 .4-1.3.7-3.1-.4l.2 1.4c-.5.4-.9.5-1.2-.2.3-.9.3-.9.2-2 .8.3.8.3 1.6 0 .4.9.9.6 1.6.2.4.3 1 .4 1.5.3-.2.5-.3.8 0 1.3-.7.5-.8.9-.1 1.5-1 .5-1.1.7-1.1 1.8-.6-.4-1.6-.4-2-.8-.4-.4.1-.8.6-.8z"/><path class="st0" d="M50 30.9c-1 .3-.9.3-1.4 1.3-.3-1.2-.1-.8-1-1.5 1.2-.3 1.1-.5.9-1.7-.3-.4-2.5-.6-3-.7-.5-.1-.7.6-.9 1-.4-1.2-.2-.9-1.2-1.4.9-.2 1.1-.2 1.3-1.1.3 1 .8.9 1.7 1.1 2.3.4 3.6 0 5.7-1 .9.1 1.9.4 1.3 1.5-2.8-.7-6 1.4-3.4 2.5zm-4.8-10.5c-.3-.7-.9-1.1-1.6-.7.5 0 .7.3.8.7.1-.1.6-.1.8 0zm-2 .7c-.5-.7-1.3-.3-1.6.4.4-.3.6-.2 1 .1.3-.1.5-.3.6-.5zm-1.1 3.4c.1-.5.3-.6.9-.7.2-1.1-1.3-.7-.9.7zm4 .1c-.4.2-.9.2-1.3 0 .7-.2 1.2-1 1.3 0z"/><path class="st0" d="M50.6 17c-1.4 1.9-.5 4.6 1.1 6-.4.2-.7.7-.8 1.2-1.3-.2-2.6-.7-4-.6 0 .3 2.8.7 3.2.8-.3.5-3.3.2-3.8.1.1-.8-.9-.5-.6-.9-1.1-.4-1.8.9-2.4.4-.1-.1-.3-1-.3-1.1.2-.3.4-.2.7-.1 0 0 .1 0 .1-.1 0-.3-.9-.3-1.1-.6-.2-.3.7-1 .9-1 .5 0 .7.5.8.6v-.2c-.1-.2-.4-.4-.2-.6.2-.4.8-.4 1.2-.3.6.2 0 1.4.4 1.5.5.1 1 0 1.5 0 5.7-.2-1.7-3.8 3.3-5.1zM52 28.8c-.7.1-1.3.5-1.1 1.3.2-.4.5-.6.9-.5-.1-.2 0-.6.2-.8zm-.1 3.7c0-.5 0-.7.5-1-.1-1.4-1.5-.1-.5 1zm3.1.4c-.4-.3-.5-.5-.4-1-1-.6-1.2 1 .4 1zm1.3-3.8c.1.4 0 .9-.3 1.2-.1-.5-.6-1.4.3-1.2z"/><path class="st0" d="M56.3 28.9c-.8-.3-.6.7-1.1.3-.7.8.3 1.8-.2 2.3-.2.2-1.1.2-1.2 0-.1-.2 0-.4.1-.6 0 0 .1-.2 0-.2-.4-.1-.5 1-1 .9-.2 0-.7-1-.5-1.2.2-.4.7-.5.7-.5h-.2c-.2 0-.3.1-.5.1-.3 0-.4-.4-.4-.6.6-2 1.7.7 2-1.3 0-.3.1-.5.1-.8v-1.1c0-.4-.1-.9-.2-1.3-.2-.7-2.4-2.2-3.2-4-.8-1.9.5-3.4.2-3.9-.2-.4-3-.1-3.7-2.1 1.4 1.3 4.2 1.7 5.9 1.2 2.2.6 1.9 5.6 4 7.1 1.6 1.2 3.4-1.1 5.1-1.2 1.6-.2 2.3.9 3.7 1.3.7.2 2-.1 1.9-1 0-1-1.4-1.4-.9-2.6.6-1.5 1.1-.2 1.5-2.6.1.5.3 1 .3 1.5 0 .6-.4 1.1-.4 1.7.1.7.3 1.5.2 2.3-.4 3.2-4.6.4-6 .4-2.4 0-5.3 4.8-8.2-1.7-.4 1.3.8 3 1.8 3.6 0 1.2-.1 2.5-.5 3.6.8-.2.9-2.7 1-3.3.8.4.4 3-.3 3.7zM42.7 9.2c.3-.1 1.1-.4 1.1-.7 1.2-.4.6 1.2-1.1.7z"/><path class="st0" d="M45 5.1c.1-.3-.1-1-.1-1.3-.2-.1-.4-.9-.2-1.1.1-.1.4.1.6.2 1.3.5.6.3.4 2.2.4-.5.4-1.2.6-1.5.3-.4.4 0 .6.1 1.4.5-1 1.6-1 2.7 0 .3 1.6 1.7 1.7 1.8-.1.2-.4.4-.6.5l-1-1 .9 1.5c.5-.2 1.8-1.1.7-1.5.3-.2.7-.2 1.1-.1 1.4.4-2.2 2.3-2.3 4.1-.5-.5-.3-1.3-.1-1.8l-.3-.5-.1.1c0 .1 0 .3-.1.4-.1.4-.5.7-.8.8.4-.7.3-1.7.6-2L45 7.5c-.3 1.4-.3.3-1.2.7-.5-.2.8-1.2.8-2 0-1.3-1.4-1.6-1.5-2.3 0-.3 1.2-.4 1.3-.1l.6 1.3z"/><path class="st0" d="M47.5 3.9c.5-.6.3-1.2-.4-1.6.2.4.2.9-.1 1.2.2.1.5.2.5.4zm-3.1-2.5c.6.3.7.5.7 1.1 1.1 1 .9-1.3-.7-1.1zm-2 1.1c.6.1.8.3 1 .9 1.2.3.4-1.4-1-.9zM43.7 18c.1-.3.3-1.1 0-1.3.5-1.3 1.2.2 0 1.3z"/><path class="st0" d="M41.5 13.8c-.3-.3-.8-.4-1.1-.6h-.5c-1-.3-.3-.5 0-.8.1-.1.3-.5.4-.4.4.1 1.3 1 1.6 1.3-.5-1.6-1.6-1-.5-1.8 1.2-.8.7 1.7 1.7 2.3.3.2 2.2-.4 2.5-.5.1.2.1.6.1.8l-1.4.3h1.8c.1-.6.1-2-.9-1.4.1-.5.7-1.7 1.2-.9.5.8.1 1.9.5 2.7.2.5.6 1 1.1 1.3-.7.1-1.3-.3-1.7-.9-1.5-.1.4.1.1 1.6-.3-.8-1.3-1.1-1.4-1.7-.4 0-.9-.1-1.3-.1 1 .8.1.6-.1 1.4-.5.3-.7-1.3-1.3-1.8-1-.7-2.3.3-2.8-.1-.2-.1.4-1.1.7-1.1l1.3.4zm.4-2.8c-.3-.7-.8-.9-1.5-.5.4.1.8.3.9.8.1-.1.4-.4.6-.3zM38 12.3c.5-.3.8-.3 1.3 0 1.4-.5-.5-1.4-1.3 0z"/><path class="st0" d="M37.9 14.6c.4-.4.7-.6 1.2-.3 1-.9-.7-1.1-1.2.3z"/><path class="st1" d="M54 2.6c2.1 0 1.1 1.7.2 1-.4-.4.2-.6-.2-1zm.3.6c.1-.4.7-.3.7.1s-.7.3-.7-.1zm1.4 1.2c-.7-.1-1.3-.3-1.8-.7-.2-.3-.2-.7 0-.9-.9-.7 1.5-.6 1.8-.3.3.4.1 1.5 0 1.9z"/><path class="st2" d="M35.2 68.2c-18.3 0-33.1-14.8-33.1-33.1 0-17.8 14-32.3 31.6-33.1V-.1C14.9.8 0 16.2 0 35.1c0 19.4 15.7 35.2 35.2 35.2 18.7 0 33.9-14.5 35.1-32.9h-2.1c-1.1 17.2-15.5 30.8-33 30.8zm80.9-13.7h1.6V43h-1.6v11.5zM114 69.1h2.2v-2.2H114v2.2zm1.9-29.2h2.2v-2.2h-2.2v2.2zm5.8 27.9c-.7.6-1 1.5-1 2.7v1.6h-1.9v1.4h1.9v10.2h1.6V73.5h3.3v-1.4h-3.3v-1.4c0-.5.1-.9.2-1.2.1-.4.4-.7.7-.9.3-.2.8-.3 1.5-.3.3 0 .6 0 .8.1.3.1.6.1.8.2v-1.5c-.7-.1-1.3-.2-2-.2-1-.1-2 .3-2.6.9zm253.5-13.3h1.6V37.8h-1.6v16.7zM133.3 78.4c-.2-.2-.5-.5-.9-.7-.3-.2-.7-.4-1-.6l-1-.6-.6-.3c-.2-.1-.5-.2-.7-.4-.2-.1-.4-.3-.6-.5-.2-.2-.2-.4-.2-.6 0-.3.1-.5.2-.7.2-.2.4-.3.6-.5.2-.1.5-.2.8-.3.3-.1.5-.1.7-.1.4 0 .9 0 1.4.1.5.1.9.2 1.3.4v-1.5c-.5-.1-.9-.2-1.3-.3-.4-.1-.9-.1-1.4-.1-.5 0-1 .1-1.5.2s-.9.3-1.3.5-.7.6-.9.9c-.2.4-.3.9-.3 1.4 0 .4.1.8.2 1.1.1.3.3.6.6.8.2.2.5.4.8.6.3.2.6.4 1 .6l1 .6c.2.1.4.2.7.4.2.1.5.3.7.4.2.2.4.3.5.6.1.2.2.5.2.7 0 .4-.1.7-.3.9-.2.2-.4.4-.7.6l-.9.3c-.3.1-.7.1-1 .1-.5 0-1-.1-1.5-.2s-1-.3-1.5-.4v1.5c.5.2 1 .3 1.6.4.5.1 1.1.1 1.6.1.6 0 1.1-.1 1.6-.2s1-.3 1.4-.6c.4-.3.7-.6.9-1.1.2-.4.3-1 .3-1.6 0-.5-.1-.9-.2-1.2.1-.2-.1-.4-.3-.7zm13.3 2.7l-2.8-9h-1.4l-2.8 9h-.1l-2.1-9h-1.6l2.8 11.6h1.8l2.7-8.9h.1l2.7 8.9h1.9l2.7-11.6h-1.6l-2.3 9zm-32.3 2.6h1.6V72.1h-1.6v11.6zm22.5-29.1c.3-.1.6-.3.9-.5.3-.2.5-.4.7-.7.2-.3.3-.6.4-.9v2h1.6V37.8h-1.6v7.1c-.2-.7-.6-1.2-1.1-1.6-.5-.4-1.1-.5-1.9-.5-.5 0-1 .1-1.4.3-.4.2-.7.4-1 .8-.3.3-.5.7-.7 1.1-.2.4-.4.9-.5 1.3-.1.5-.2.9-.2 1.4 0 .5-.1.9-.1 1.3 0 .5 0 .9.1 1.4 0 .5.1.9.2 1.4.1.4.3.9.4 1.2.2.4.4.7.7 1 .3.3.7.5 1.1.7.4.2.9.3 1.4.3.3-.2.6-.3 1-.4zm-2.3-1.9c-.2-.2-.3-.5-.4-.8-.1-.3-.2-.6-.2-.9-.1-.3-.1-.6-.1-.9v-1.8c0-.4.1-.7.1-1.1.1-.4.1-.8.2-1.1.1-.4.3-.7.4-1 .2-.3.4-.5.7-.7.3-.2.6-.3 1-.3s.7.1 1 .2c.3.2.5.4.7.6.2.3.4.6.5.9l.3 1c.1.4.1.7.2 1v.9c0 .3 0 .6-.1.9 0 .3-.1.7-.2 1l-.3 1c-.1.3-.3.6-.5.9-.2.3-.4.5-.7.6-.3.2-.6.2-.9.2-.4 0-.7-.1-.9-.2-.4 0-.6-.2-.8-.4zm-24.4 20.4c-.3-.4-.8-.7-1.3-.9-.5-.2-1.1-.3-1.8-.3-.8 0-1.6.2-2.1.5-.6.3-1 .7-1.4 1.2-.4.5-.6 1.1-.8 1.8-.2.7-.2 1.4-.2 2.2 0 .9.1 1.8.3 2.6.2.8.5 1.5 1 2 .5.6 1 1 1.7 1.3.7.3 1.6.5 2.6.5.5 0 .9 0 1.3-.1.4 0 .9-.1 1.3-.3v-1.4c-.4.1-.8.2-1.1.2-.4.1-.7.1-1.2.1-.7 0-1.3-.1-1.8-.4-.5-.3-.9-.7-1.3-1.2-.3-.5-.6-1-.7-1.6-.2-.6-.2-1.2-.2-1.9v-.7h6.7v-.6c0-.6-.1-1.2-.2-1.8-.2-.4-.4-.8-.8-1.2zm-5.5 2.3l.3-.9c.1-.3.3-.5.5-.7.2-.2.4-.3.7-.5.3-.1.6-.2.9-.2.3 0 .6.1.9.2.3.1.5.3.7.5.2.2.4.4.5.7.1.3.2.6.2.9h-4.7zM83 71.8c.1-.5.3-.9.5-1.4.2-.4.5-.8.8-1.1.3-.3.7-.6 1.1-.8.4-.2.9-.3 1.5-.3.5 0 .9.1 1.3.2.4.2.7.4 1 .7.3.3.5.6.6 1 .2.4.2.9.2 1.3h2.1c0-.8-.1-1.5-.4-2.1-.3-.6-.7-1.1-1.2-1.5-.5-.4-1.1-.7-1.7-.9-.7-.2-1.3-.3-2.1-.3s-1.5.1-2.1.3c-.6.2-1.2.5-1.6.9-.5.4-.9.8-1.2 1.3-.3.5-.6 1.1-.8 1.7-.2.6-.3 1.2-.4 1.9-.1.7-.1 1.3-.1 2 0 .8 0 1.5.1 2.3.1.8.2 1.5.4 2.2.2.7.5 1.3.8 1.9.3.6.7 1.1 1.2 1.5.5.4 1.1.8 1.8 1 .7.2 1.5.4 2.4.4.4 0 .8 0 1.2-.1l1.3-.3c.4-.1.8-.3 1.2-.5.4-.2.7-.4 1-.7v-8.1h-5.7v1.6H90v5.7c-.2.2-.4.3-.7.4-.3.1-.5.2-.8.3-.3.1-.6.1-.8.2-.3 0-.5.1-.8.1-.7 0-1.2-.1-1.7-.3-.5-.2-.9-.5-1.2-.9-.3-.4-.6-.9-.8-1.4-.2-.5-.4-1.1-.5-1.6-.1-.6-.2-1.1-.2-1.7 0-.6-.1-1.1-.1-1.6s0-1 .1-1.5c.3-.8.4-1.3.5-1.8zm1.9-34l-5.4 16.8h1.9l1.6-5.2h6l1.7 5.2h1.9l-5.4-16.8h-2.3zm-1.3 10l2.5-8.3 2.5 8.3h-5zm13-10H95v16.8h1.6V37.8zM122.4 53c.5.6 1 1 1.7 1.3.7.3 1.6.5 2.6.5.5 0 .9 0 1.3-.1.4 0 .9-.1 1.3-.3V53c-.4.1-.8.2-1.1.2-.4.1-.7.1-1.2.1-.7 0-1.3-.1-1.8-.4-.5-.3-.9-.7-1.3-1.2-.3-.5-.6-1-.7-1.6-.2-.6-.2-1.2-.2-1.9v-.7h6.7v-.6c0-.6-.1-1.2-.2-1.8-.2-.5-.4-1-.8-1.4-.3-.4-.8-.7-1.3-.9-.5-.2-1.1-.3-1.8-.3-.8 0-1.6.2-2.1.5-.6.3-1 .7-1.4 1.2-.4.5-.6 1.1-.8 1.8-.2.7-.2 1.4-.2 2.2 0 .9.1 1.8.3 2.6.2.9.5 1.6 1 2.2zm1-7.6c.1-.3.3-.5.5-.7.2-.2.4-.3.7-.5.3-.1.6-.2.9-.2.3 0 .6.1.9.2.3.1.5.3.7.5.2.2.4.4.5.7.1.3.2.6.2.9h-4.6c0-.4.1-.6.2-.9zM397.9 43v1.9c-.1-.3-.2-.6-.4-.9-.2-.3-.4-.5-.7-.7-.3-.2-.6-.3-.9-.4-.3-.1-.7-.1-1-.1-.5 0-1 .1-1.4.3-.4.2-.7.4-1 .8-.3.3-.5.7-.7 1.1-.2.4-.4.8-.5 1.3-.1.5-.2.9-.2 1.4-.1.5-.1.9-.1 1.3s0 .9.1 1.3c0 .5.1.9.2 1.3s.3.8.5 1.2c.2.4.4.7.7 1 .3.3.6.5 1 .7.4.2.9.2 1.4.2.7 0 1.4-.2 1.9-.6.5-.4.9-.9 1.2-1.6v2c0 .6-.1 1.2-.2 1.6-.1.5-.3.9-.6 1.2-.3.3-.6.6-1.1.7-.5.2-1 .2-1.7.2-.5 0-1-.1-1.5-.2s-.9-.3-1.4-.5v1.7l1.6.3c.5.1 1 .1 1.6.1 1.7 0 2.9-.4 3.7-1.3.8-.9 1.2-2.1 1.2-3.7V43h-1.7zm-.1 6.4c0 .3-.1.7-.2 1l-.3 1c-.1.3-.3.6-.5.9-.2.3-.4.5-.7.6-.3.1-.6.2-.9.2s-.6-.1-.9-.2c-.2-.1-.5-.3-.6-.6-.2-.2-.3-.5-.4-.8l-.3-.9c-.1-.3-.1-.6-.1-.9V48c0-.3.1-.7.1-1 .1-.4.1-.7.3-1 .1-.3.3-.6.4-.9.2-.3.4-.5.7-.7.3-.2.6-.2.9-.2.5 0 .9.2 1.3.5.3.3.6.7.8 1.2.2.5.4.9.5 1.5.1.5.1 1 .1 1.4-.1 0-.1.3-.2.6zm-241 22.5c-.5 0-1 .1-1.5.2s-.9.3-1.3.6-.7.6-.9 1c-.2.4-.4.9-.4 1.5h1.8c0-.3.1-.6.3-.9.1-.2.3-.4.5-.6.2-.1.4-.2.7-.3.3-.1.6-.1.9-.1.6 0 1 .1 1.3.3.3.2.5.5.6.8.1.3.2.7.2 1.1V77c-.2 0-.4.1-.6.1h-.6c-.4 0-.7 0-1.2.1-.4.1-.8.1-1.2.3-.4.1-.8.3-1.2.5s-.7.4-1 .7c-.3.3-.5.6-.7.9-.2.3-.3.7-.3 1.2s.1.9.2 1.3.3.7.6 1c.3.3.6.5 1 .7.4.2.8.2 1.3.2.3 0 .7 0 1-.1.4-.1.7-.2 1-.3.3-.2.6-.3.9-.6.3-.2.5-.5.6-.8v1.5h1.6v-8.1c0-1.3-.3-2.2-1-2.8-.3-.7-1.3-.9-2.6-.9zm2.2 7.2c0 .2 0 .4-.1.6 0 .2-.1.4-.1.5-.1.2-.1.4-.2.6-.1.3-.3.5-.5.7l-.6.6c-.2.2-.5.3-.8.4-.3.1-.5.1-.8.1-.5 0-.9-.2-1.2-.5-.3-.3-.4-.7-.4-1.2s.1-.8.4-1.2c.3-.3.6-.6 1-.8s.8-.3 1.2-.4c.4-.1.8-.1 1.2-.1h1c-.1.3-.1.5-.1.7zm228.7-35.2c-.3-.4-.8-.7-1.3-.9-.5-.2-1.1-.3-1.8-.3-.8 0-1.6.2-2.1.5-.6.3-1 .7-1.4 1.2-.4.5-.6 1.1-.8 1.8s-.2 1.4-.2 2.2c0 .9.1 1.8.3 2.6.2.8.5 1.5 1 2 .5.6 1 1 1.7 1.3.7.3 1.6.5 2.6.5.5 0 .9 0 1.3-.1.4 0 .9-.1 1.3-.3V53c-.4.1-.8.2-1.1.2s-.7.1-1.2.1c-.7 0-1.3-.1-1.8-.4-.5-.3-.9-.7-1.3-1.2-.3-.5-.6-1-.7-1.6s-.2-1.2-.2-1.9v-.7h6.7v-.6c0-.6-.1-1.2-.2-1.8-.2-.3-.5-.8-.8-1.2zm-5.5 2.4l.3-.9c.1-.3.3-.5.5-.7.2-.2.4-.3.7-.5.3-.1.6-.2.9-.2.3 0 .6.1.9.2.3.1.5.3.7.5.2.2.4.4.5.7.1.3.2.6.2.9h-4.7zM97.4 74.4v-2.2h-1.6v11.6h1.6V79c0-.6.1-1.3.2-1.9.1-.6.3-1.2.6-1.7s.7-.9 1.2-1.2 1.1-.5 1.9-.5v-1.8c-1.9 0-3.2.8-3.9 2.5zM110 45.2V43h-1.6v11.6h1.6v-4.8c0-.6.1-1.3.2-1.9.1-.6.3-1.2.6-1.7s.7-.9 1.2-1.2c.5-.3 1.1-.5 1.9-.5v-1.8c-1.8 0-3.1.8-3.9 2.5zm-7 9.3V44.3h3.3V43H103v-1.4c0-.5.1-.9.2-1.2.1-.4.4-.7.7-.9.3-.2.8-.3 1.5-.3.3 0 .6 0 .8.1.3.1.6.1.8.2V38c-.7-.1-1.3-.2-2-.2-1.2 0-2.1.3-2.8.9-.7.6-1 1.5-1 2.7V43h-1.9v1.4h1.9v10.2h1.8zm229.5-15.3l-1.6 1V43H329v1.4h1.9v7.5c0 .6.1 1 .2 1.4.1.4.3.7.6.9.3.2.6.4 1 .5.4.1.9.2 1.4.2h.7c.2 0 .5-.1.7-.1v-1.5c-.2.1-.4.1-.5.2-.2 0-.4.1-.6.1-.7 0-1.1-.2-1.4-.5-.3-.3-.5-.8-.5-1.4v-7.1h3.1V43h-3.1v-3.8zm-57.4 4.6c-.2-.3-.5-.6-.9-.8-.4-.2-.8-.3-1.3-.3s-1 .1-1.3.2c-.4.1-.7.3-1 .6-.3.3-.5.6-.7.9-.2.4-.4.8-.5 1.2V43h-1.6v11.6h1.6v-4.8c0-.3 0-.6.1-1s.1-.8.3-1.2c.1-.4.3-.8.4-1.2.2-.4.4-.7.6-1 .2-.3.5-.5.8-.7.3-.2.7-.3 1-.3.3 0 .6.1.8.2.2.1.4.3.5.5.1.2.2.4.3.7.1.3.1.5.1.8v7.9h1.6v-8.3c0-.5-.1-.9-.2-1.3-.2-.4-.3-.8-.6-1.1zm-114.3-6h-2.2l-5.9 7.6v-7.6h-1.9v16.8h1.9v-8.2l6.4 8.2h2.2l-6.8-8.7 6.3-8.1zm92.6 11.5c-.2-.2-.5-.5-.9-.7-.3-.2-.7-.4-1-.6l-1-.6-.6-.3c-.2-.1-.5-.2-.7-.4-.2-.1-.4-.3-.6-.5-.2-.2-.2-.4-.2-.6 0-.3.1-.5.2-.7.2-.2.4-.3.6-.5.2-.1.5-.2.8-.3.3-.1.5-.1.7-.1.4 0 .9 0 1.4.1.5.1.9.2 1.3.4V43c-.5-.1-.9-.2-1.3-.3-.4-.1-.9-.1-1.4-.1-.5 0-1 .1-1.5.2s-.9.3-1.3.5-.7.6-.9.9c-.2.4-.3.9-.3 1.4 0 .4.1.8.2 1.1.1.3.3.6.6.8.2.2.5.4.8.6.3.2.6.4 1 .6l1 .6c.2.1.4.2.7.4.2.1.5.3.7.4.2.2.4.3.5.6.1.2.2.5.2.7 0 .4-.1.7-.3.9-.2.2-.4.4-.7.6l-.9.3c-.3.1-.7.1-1 .1-.5 0-1-.1-1.5-.2s-1-.3-1.5-.4v1.5c.5.2 1 .3 1.6.4.5.1 1.1.1 1.6.1.6 0 1.1-.1 1.6-.2s1-.3 1.4-.6c.4-.3.7-.6.9-1.1.2-.4.3-1 .3-1.6 0-.5-.1-.9-.2-1.2.1-.2-.1-.5-.3-.7zM354.9 43h-2l-4 4.9V37.8h-1.6v16.8h1.6v-6.2l4.5 6.2h2l-4.7-6.4 4.2-5.2zm-69.6 6.3c-.2-.2-.5-.5-.9-.7-.3-.2-.7-.4-1-.6l-1-.6-.6-.3c-.2-.1-.5-.2-.7-.4-.2-.1-.4-.3-.6-.5-.2-.2-.2-.4-.2-.6 0-.3.1-.5.2-.7.2-.2.4-.3.6-.5.2-.1.5-.2.8-.3.3-.1.5-.1.7-.1.4 0 .9 0 1.4.1.5.1.9.2 1.3.4V43c-.5-.1-.9-.2-1.3-.3-.4-.1-.9-.1-1.4-.1-.5 0-1 .1-1.5.2s-.9.3-1.3.5-.7.6-.9.9c-.2.4-.3.9-.3 1.4 0 .4.1.8.2 1.1.1.3.3.6.6.8.2.2.5.4.8.6.3.2.6.4 1 .6l1 .6c.2.1.4.2.7.4.2.1.5.3.7.4.2.2.4.3.5.6.1.2.2.5.2.7 0 .4-.1.7-.3.9-.2.2-.4.4-.7.6l-.9.3c-.3.1-.7.1-1 .1-.5 0-1-.1-1.5-.2s-1-.3-1.5-.4v1.5c.5.2 1 .3 1.6.4.5.1 1.1.1 1.6.1.6 0 1.1-.1 1.6-.2s1-.3 1.4-.6c.4-.3.7-.6.9-1.1.2-.4.3-1 .3-1.6 0-.5-.1-.9-.2-1.2.2-.2 0-.5-.3-.7zm29.4-6.6c-.5 0-1 .1-1.5.2s-.9.3-1.3.6-.7.6-.9 1c-.2.4-.4.9-.4 1.5h1.8c0-.3.1-.6.3-.9.1-.2.3-.4.5-.6.2-.1.4-.2.7-.3.3-.1.6-.1.9-.1.6 0 1 .1 1.3.3.3.2.5.5.6.8.1.3.2.7.2 1.1v1.5c-.2 0-.4.1-.6.1h-.6c-.4 0-.7 0-1.2.1-.4.1-.8.1-1.2.3-.4.1-.8.3-1.2.5-.4.2-.7.4-1 .7-.3.3-.5.6-.7.9-.2.3-.3.7-.3 1.2s.1.9.2 1.3.3.7.6 1c.3.3.6.5 1 .7.4.2.8.2 1.3.2.3 0 .7 0 1-.1.4-.1.7-.2 1-.3.3-.2.6-.3.9-.6.3-.2.5-.5.6-.8v1.5h1.6v-8.1c0-1.3-.3-2.2-1-2.8-.3-.6-1.3-.9-2.6-.9zm2.2 7.2c0 .2 0 .4-.1.6 0 .2-.1.4-.1.5-.1.2-.1.4-.2.6-.1.3-.3.5-.5.7l-.6.6c-.2.2-.5.3-.8.4-.3.1-.5.1-.8.1-.5 0-.9-.2-1.2-.5-.3-.3-.4-.7-.4-1.2s.1-.8.4-1.2c.3-.3.6-.6 1-.8.4-.2.8-.3 1.2-.4.4-.1.8-.1 1.2-.1h1c-.1.3-.1.5-.1.7zm7.2-11.3c-.7.6-1 1.5-1 2.7V43h-1.9v1.4h1.9v10.2h1.6V44.3h3.3V43h-3.3v-1.4c0-.5.1-.9.2-1.2.1-.4.4-.7.7-.9.3-.2.8-.3 1.5-.3.3 0 .6 0 .8.1.3.1.6.1.8.2V38c-.7-.1-1.3-.2-2-.2-1-.1-1.9.2-2.6.8zm-79.7 10.7c-.2-.2-.5-.5-.9-.7-.3-.2-.7-.4-1-.6l-1-.6-.6-.3c-.2-.1-.5-.2-.7-.4-.2-.1-.4-.3-.6-.5-.2-.2-.2-.4-.2-.6 0-.3.1-.5.2-.7.2-.2.4-.3.6-.5.2-.1.5-.2.8-.3.3-.1.5-.1.7-.1.4 0 .9 0 1.4.1.5.1.9.2 1.3.4V43c-.5-.1-.9-.2-1.3-.3-.4-.1-.9-.1-1.4-.1-.5 0-1 .1-1.5.2s-.9.3-1.3.5-.7.6-.9.9c-.2.4-.3.9-.3 1.4 0 .4.1.8.2 1.1.1.3.3.6.6.8.2.2.5.4.8.6.3.2.6.4 1 .6l1 .6c.2.1.4.2.7.4.2.1.5.3.7.4.2.2.4.3.5.6.1.2.2.5.2.7 0 .4-.1.7-.3.9-.2.2-.4.4-.7.6l-.9.3c-.3.1-.7.1-1 .1-.5 0-1-.1-1.5-.2s-1-.3-1.5-.4v1.5c.5.2 1 .3 1.6.4.5.1 1.1.1 1.6.1.6 0 1.1-.1 1.6-.2s1-.3 1.4-.6c.4-.3.7-.6.9-1.1.2-.4.3-1 .3-1.6 0-.5-.1-.9-.2-1.2.1-.2-.1-.5-.3-.7zm45.9-3.8c.2-.4.5-.7.8-1 .4-.3.8-.4 1.3-.4.4 0 .7.1.9.2.3.1.5.3.6.5.2.2.3.5.4.8.1.3.1.6.1.9h2c0-.6-.1-1.2-.3-1.6-.2-.5-.4-.9-.8-1.2s-.8-.6-1.2-.7c-.5-.2-1-.2-1.6-.2-.9 0-1.6.2-2.2.5-.6.3-1.1.7-1.5 1.2-.4.5-.6 1.1-.8 1.8-.2.7-.2 1.4-.2 2.2 0 1 .1 1.8.4 2.6.2.8.6 1.4 1.1 2 .5.5 1.1 1 1.9 1.3.7.3 1.6.4 2.6.4.4 0 .8 0 1.2-.1.4 0 .8-.1 1.2-.2v-1.3c-.3.1-.6.2-.9.2h-.9c-.8 0-1.5-.1-2.1-.4-.6-.3-1.1-.6-1.4-1.1-.4-.5-.6-1-.8-1.7-.2-.6-.3-1.3-.3-2.1 0-.4 0-.9.1-1.4.1-.4.2-.9.4-1.2zm16.3-1.7c-.2-.3-.5-.6-.9-.8-.4-.2-.8-.3-1.3-.3s-1 .1-1.3.2c-.4.1-.7.3-1 .6-.3.3-.5.6-.7.9-.2.4-.4.8-.5 1.2v-7.9h-1.6v16.8h1.6v-4.8c0-.3 0-.6.1-1s.1-.8.3-1.2c.1-.4.3-.8.4-1.2.2-.4.4-.7.6-1 .2-.3.5-.5.8-.7.3-.2.7-.3 1.1-.3.3 0 .6.1.8.2.2.1.4.3.5.5.1.2.2.4.3.7.1.3.1.5.1.8v7.9h1.6v-8.3c0-.5-.1-.9-.2-1.3-.3-.3-.4-.7-.7-1zm37.2 5.5c-.2-.2-.5-.5-.9-.7-.3-.2-.7-.4-1-.6l-1-.6-.6-.3c-.2-.1-.5-.2-.7-.4-.2-.1-.4-.3-.6-.5-.2-.2-.2-.4-.2-.6 0-.3.1-.5.2-.7.2-.2.4-.3.6-.5.2-.1.5-.2.8-.3.3-.1.5-.1.7-.1.4 0 .9 0 1.4.1.5.1.9.2 1.3.4V43c-.5-.1-.9-.2-1.3-.3-.4-.1-.9-.1-1.4-.1-.5 0-1 .1-1.5.2s-.9.3-1.3.5-.7.6-.9.9c-.2.4-.3.9-.3 1.4 0 .4.1.8.2 1.1.1.3.3.6.6.8.2.2.5.4.8.6.3.2.6.4 1 .6l1 .6c.2.1.4.2.7.4.2.1.5.3.7.4.2.2.4.3.5.6.1.2.2.5.2.7 0 .4-.1.7-.3.9-.2.2-.4.4-.7.6l-.9.3c-.3.1-.7.1-1 .1-.5 0-1-.1-1.5-.2s-1-.3-1.5-.4v1.5c.5.2 1 .3 1.6.4.5.1 1.1.1 1.6.1.6 0 1.1-.1 1.6-.2s1-.3 1.4-.6c.4-.3.7-.6.9-1.1.2-.4.4-1 .4-1.6 0-.5-.1-.9-.2-1.2 0-.2-.2-.5-.4-.7zm-80.3-5.4c-.3-.4-.8-.7-1.3-.9-.5-.2-1.1-.3-1.8-.3-.8 0-1.6.2-2.1.5-.6.3-1 .7-1.4 1.2-.4.5-.6 1.1-.8 1.8s-.2 1.4-.2 2.2c0 .9.1 1.8.3 2.6.2.8.5 1.5 1 2 .5.6 1 1 1.7 1.3.7.3 1.6.5 2.6.5.5 0 .9 0 1.3-.1.4 0 .9-.1 1.3-.3V53c-.4.1-.8.2-1.1.2-.4.1-.7.1-1.2.1-.7 0-1.3-.1-1.8-.4-.5-.3-.9-.7-1.3-1.2s-.6-1-.7-1.6-.2-1.2-.2-1.9v-.7h6.7v-.6c0-.6-.1-1.2-.2-1.8-.2-.3-.4-.8-.8-1.2zm-5.5 2.4l.3-.9c.1-.3.3-.5.5-.7.2-.2.4-.3.7-.5.3-.1.6-.2.9-.2.3 0 .6.1.9.2.3.1.5.3.7.5.2.2.4.4.5.7.1.3.2.6.2.9H258zM176.6 74c-.3-.7-.7-1.2-1.2-1.6-.5-.4-1.1-.5-1.9-.5-.5 0-1 .1-1.4.3-.4.2-.7.4-1 .8-.3.3-.5.7-.7 1.1-.2.4-.3.9-.5 1.3-.1.5-.2.9-.2 1.4 0 .5-.1.9-.1 1.3 0 .5 0 .9.1 1.4 0 .5.1.9.2 1.4.1.4.3.9.4 1.2.2.4.4.7.7 1 .3.3.7.5 1.1.7.4.2.9.3 1.4.3.3 0 .7-.1 1-.2.3-.1.6-.3.9-.5.3-.2.5-.4.7-.7.2-.3.3-.6.4-.9v2h1.6V66.9h-1.6V74zm-.1 4.9c0 .3-.1.7-.2 1l-.3 1c-.1.3-.3.6-.5.9-.2.3-.4.5-.7.6-.3.2-.6.2-.9.2-.4 0-.7-.1-.9-.2-.3-.1-.5-.3-.7-.5-.2-.2-.3-.5-.4-.8-.1-.3-.2-.6-.2-.9-.1-.3-.1-.6-.1-.9v-1.8c0-.4.1-.7.1-1.1.1-.4.1-.8.2-1.1.1-.4.3-.7.4-1 .2-.3.4-.5.7-.7.3-.2.6-.3 1-.3s.7.1 1 .2c.3.2.5.4.7.6.2.3.4.6.5.9l.3 1c.1.4.1.7.2 1v.9c-.1.3-.1.6-.2 1zm192.9-24.4h1.6V37.8h-1.6v16.7zm-192-6.8c0 .3 0 .6-.1 1s-.1.8-.2 1.2-.3.8-.4 1.2-.4.7-.6 1c-.2.3-.5.5-.8.7-.3.2-.7.3-1 .3-.3 0-.6-.1-.8-.2-.2-.1-.4-.3-.5-.5s-.2-.4-.3-.7c-.1-.3-.1-.5-.1-.8V43H171v8.3c0 .5.1.9.2 1.3s.3.8.5 1.1c.2.3.6.6.9.8.4.2.8.3 1.3.3s.9-.1 1.3-.2.7-.3 1-.6c.3-.3.5-.6.7-.9.2-.4.4-.8.5-1.2v2.7h1.6V43h-1.6v4.7zm-12.5-2.5V43h-1.6v11.6h1.6v-4.8c0-.6.1-1.3.2-1.9.1-.6.3-1.2.6-1.7s.7-.9 1.2-1.2c.5-.3 1.1-.5 1.9-.5v-1.8c-1.9 0-3.1.8-3.9 2.5zm-.2 38.5h1.6V66.9h-1.6v16.8zm68.1-43.8h2.2v-2.2h-2.2v2.2zm-7 12.2l-4-14.4h-2l-3.9 14.4-2.6-14.4h-1.7l3 16.8h2.3l3.9-14.2 3.9 14.2h2.3l3-16.8h-1.7l-2.5 14.4zm7.3 2.4h1.6V43h-1.6v11.5zm132-9.9c-.4-.6-.9-1-1.5-1.4-.6-.3-1.4-.5-2.3-.5-.9 0-1.6.2-2.2.5-.6.3-1.1.8-1.5 1.4-.4.6-.6 1.2-.8 1.9-.2.7-.2 1.5-.2 2.3 0 .8.1 1.5.2 2.3.2.7.4 1.4.8 1.9.4.6.9 1 1.5 1.3.6.3 1.4.5 2.2.5.9 0 1.7-.2 2.3-.5s1.1-.8 1.5-1.3c.4-.6.6-1.2.8-1.9.2-.7.2-1.5.2-2.3s-.1-1.5-.2-2.3c-.1-.7-.4-1.4-.8-1.9zm-.9 5.1c0 .4-.1.7-.2 1l-.3 1c-.1.3-.3.6-.5.8-.2.2-.5.4-.8.6-.3.1-.6.2-1 .2s-.8-.1-1-.2c-.3-.1-.5-.3-.8-.6-.2-.2-.4-.5-.5-.8l-.3-1c-.1-.3-.1-.7-.2-1v-2c0-.4.1-.7.2-1l.3-1c.1-.3.3-.6.5-.8.2-.2.5-.4.8-.6.3-.1.6-.2 1-.2s.7.1 1 .2c.3.1.6.3.8.6.2.2.4.5.5.8.1.3.2.6.3 1 .1.3.1.7.2 1v1s.1.7 0 1zm-161.1-3.8c-.1-.4-.3-.9-.4-1.2-.2-.4-.4-.7-.7-1-.3-.3-.7-.5-1.1-.7-.4-.2-.9-.3-1.4-.3-.3 0-.7.1-1 .2-.3.1-.6.3-.9.5-.3.2-.5.4-.7.7-.2.3-.3.6-.4.9v-2h-1.6v16.8h1.6v-7.1c.2.7.6 1.3 1.1 1.6.5.4 1.2.6 1.9.6.5 0 1-.1 1.4-.3.4-.2.7-.4 1-.8.3-.3.5-.7.7-1.1.2-.4.4-.9.5-1.3.1-.5.2-.9.2-1.4 0-.5.1-.9.1-1.3 0-.5 0-.9-.1-1.4 0-.5-.1-1-.2-1.4zm-1.6 3.4c0 .4-.1.7-.1 1.1-.1.4-.1.8-.2 1.1-.1.4-.3.7-.4 1-.2.3-.4.5-.7.7-.3.2-.6.3-1 .3s-.7-.1-1-.2c-.3-.2-.5-.4-.7-.6-.2-.3-.4-.6-.5-.9l-.3-1c-.1-.4-.1-.7-.2-1v-.9c0-.3 0-.6.1-.9 0-.3.1-.7.2-1l.3-1c.1-.3.3-.6.5-.9.2-.3.4-.5.7-.6.3-.2.6-.2.9-.2.5 0 1 .1 1.3.4.3.3.6.7.7 1.1.2.4.3.9.3 1.4.1.5.1.9.1 1.3v.8zm-10.1-3.4c-.1-.4-.3-.9-.4-1.2-.2-.4-.4-.7-.7-1-.3-.3-.7-.5-1.1-.7-.4-.2-.9-.3-1.4-.3-.3 0-.7.1-1 .2-.3.1-.6.3-.9.5-.3.2-.5.4-.7.7-.2.3-.3.6-.4.9v-2H183v16.8h1.6v-7.1c.2.7.6 1.3 1.1 1.6.5.4 1.2.6 1.9.6.5 0 1-.1 1.4-.3.4-.2.7-.4 1-.8.3-.3.5-.7.7-1.1.2-.4.4-.9.5-1.3.1-.5.2-.9.2-1.4 0-.5.1-.9.1-1.3 0-.5 0-.9-.1-1.4.2-.5.1-1 0-1.4zm-1.6 3.4c0 .4-.1.7-.1 1.1-.1.4-.1.8-.2 1.1-.1.4-.3.7-.4 1-.2.3-.4.5-.7.7-.3.2-.6.3-1 .3s-.7-.1-1-.2c-.3-.2-.5-.4-.7-.6-.2-.3-.4-.6-.5-.9l-.3-1c-.1-.4-.1-.7-.2-1v-.9c0-.3 0-.6.1-.9 0-.3.1-.7.2-1l.3-1c.1-.3.3-.6.5-.9.2-.3.4-.5.7-.6.3-.2.6-.2.9-.2.5 0 1 .1 1.3.4.3.3.6.7.7 1.1.2.4.3.9.3 1.4.1.5.1.9.1 1.3v.8z"/><path class="st0" d="M80.8 104.7v-1.3h1.4v1.3h-1.4zm.1 7.8v-6.3h1.2v6.3h-1.2zm7 0v-4.2c0-.6-.2-1-.8-1-1.2 0-1.7 1.6-1.7 2.6v2.7h-1.2v-6.3h1.2v1.3c.4-.9 1-1.5 2-1.5 1.3 0 1.7 1 1.7 2.1v4.3h-1.2zm9.6-8v8h-1.3v-8H94v-1.1h5.8v1.1h-2.3zm4.2 5.3v2.7h-1.2v-6.3h1.2v1.3c.3-.9 1-1.4 1.9-1.4v1.3c-1.5 0-1.9 1.1-1.9 2.4zm6.2 2.7v-.8c-.3.6-1 .9-1.6.9-1.1 0-1.8-.6-1.8-1.7 0-1.8 2.1-2.1 3.4-2.1v-1.1c0-.1 0-.1-.1-.2-.1-.4-.5-.6-.9-.6-.6 0-1 .4-1 1h-1.3c0-1.4 1.1-1.9 2.3-1.9 1.4 0 2.1.7 2.1 2v4.4h-1.1zm-3.1-7.5v-1.4h1.6v1.4h-1.6zm3.1 4.7h-.2c-.7 0-1.9.3-1.9 1.2 0 .4.3.8.7.8.8 0 1.4-.9 1.4-1.7v-.3zm-.4-4.7v-1.4h1.6v1.4h-1.6zm5.2 10.3c-.6 0-1.3-.1-1.9-.2v-1.2c.6.3 1.2.5 1.8.5 1.4 0 1.8-.7 1.8-2v-1c-.2.7-1 1.1-1.7 1.1-1.7 0-2.2-1.7-2.2-3.1 0-1.4.5-3.3 2.2-3.3.7 0 1.4.4 1.6 1v-.9h1.2v6.5c.1 1.9-1 2.6-2.8 2.6zm.4-8.3c-1.1 0-1.2 1.5-1.2 2.3 0 .8.1 2.2 1.2 2.2 1.1 0 1.4-1.5 1.4-2.4 0-.7-.3-2.1-1.4-2.1zm5.2 1.9c0 1.4.7 2.8 2.3 2.8.4 0 .8-.1 1.2-.2v.9c-.5.1-1 .2-1.6.2-2.2 0-3.1-1.5-3.1-3.6 0-1.7.8-3 2.6-3 1.5 0 2.3 1.1 2.3 2.5v.3h-3.7zm1.3-1.9c-.5 0-.9.3-1.2.7-.1.1-.1.3-.1.4h2.4c.1-.7-.4-1.1-1.1-1.1zm5 2.8v2.7h-1.2v-6.3h1.2v1.3c.3-.9 1-1.4 1.9-1.4v1.3c-1.4 0-1.9 1.1-1.9 2.4zm4.4 2.8c-.6 0-1.1-.1-1.7-.3v-1c.4.2 1.1.4 1.6.4s1.3-.1 1.3-.8c0-1.1-2.9-1.3-2.9-3.1 0-1.3 1.1-1.8 2.2-1.8.5 0 .9.1 1.4.2v1.1c-.5-.2-.9-.4-1.4-.4-.4 0-1 .2-1 .7 0 1 2.9 1.2 2.9 3.1 0 1.5-1.1 1.9-2.4 1.9zm6.8-4.3c0-.6-.2-1.3-1-1.3-1 0-1.3 1.1-1.3 1.9 0 1.6.8 2.8 2.5 2.8.3 0 .7 0 1-.1v.8c-.6.2-1.1.2-1.7.2-2.1 0-3.1-1.6-3.1-3.5 0-1.7.8-3.1 2.7-3.1 1.4 0 2.2.8 2.2 2.2h-1.3zm6.2 4.2v-4.2c0-.6-.2-1-.8-1-1.2 0-1.7 1.6-1.7 2.6v2.7h-1.2v-9.1h1.2v4.2c.4-.9 1-1.5 2-1.5 1.3 0 1.7 1 1.7 2.1v4.3H142zm6.1 0v-.8c-.3.6-1 .9-1.6.9-1.1 0-1.8-.6-1.8-1.7 0-1.8 2.1-2.1 3.4-2.1v-1.1c0-.1 0-.1-.1-.2-.1-.4-.5-.6-.9-.6-.6 0-1 .4-1 1h-1.3c0-1.4 1.1-1.9 2.3-1.9 1.4 0 2.1.7 2.1 2v4.4h-1.1zm0-2.8h-.2c-.7 0-1.9.3-1.9 1.2 0 .4.3.8.7.8.8 0 1.4-.9 1.4-1.7v-.3zm6-5.5c-.8 0-1.2.6-1.2 1.4v.6h1.9v.9h-1.9v5.3h-1.2v-5.3h-1.1v-.9h1.1v-.7c0-1.6.9-2.2 2.4-2.2.4 0 .9 0 1.3.1v1c-.5-.2-.9-.2-1.3-.2zm3.4 2.9v3.3c0 .7.2 1.2 1 1.2.2 0 .4 0 .6-.1v.9c-.3.1-.6.1-.9.1-1.1 0-1.9-.3-1.9-1.5v-4h-1.1v-.9h1.1v-1.5l1.2-.7v2.2h1.7v.9h-1.7zm10.3 5.4v-1c-.3.7-1 1.1-1.7 1.1-1.7 0-2.1-1.8-2.1-3.2 0-1.4.4-3.4 2.2-3.4.7 0 1.4.3 1.7 1v-3.7h1.2v9.1h-1.3zm-1.3-5.5c-1.1 0-1.2 1.5-1.2 2.4 0 .8.1 2.4 1.2 2.4 1.1 0 1.4-1.6 1.4-2.4-.1-.9-.3-2.4-1.4-2.4zm5.2 1.9c0 1.4.7 2.8 2.3 2.8.4 0 .8-.1 1.2-.2v.9c-.5.1-1 .2-1.6.2-2.2 0-3.1-1.5-3.1-3.6 0-1.7.8-3 2.6-3 1.5 0 2.3 1.1 2.3 2.5v.3h-3.7zm1.3-1.9c-.5 0-.9.3-1.2.7-.1.1-.1.3-.1.4h2.4c0-.7-.5-1.1-1.1-1.1zm5 2.8v2.7h-1.2v-6.3h1.2v1.3c.3-.9 1-1.4 1.9-1.4v1.3c-1.5 0-1.9 1.1-1.9 2.4zm9.1 2.8c-.8 0-1.6-.1-2.3-.4v-1.4c.7.4 1.6.7 2.4.7.9 0 1.7-.4 1.7-1.3s-.8-1.3-1.5-1.8l-.8-.5c-1-.6-2-1.1-2-2.4 0-1.7 1.5-2.3 3-2.3.7 0 1.4.1 2.1.3v1.2c-.7-.2-1.4-.4-2.1-.4-.8 0-1.5.3-1.5 1.2 0 .7.9 1.2 1.5 1.5l.9.5c1 .6 1.9 1.1 1.9 2.5-.1 1.9-1.7 2.6-3.3 2.6zm6.2-5.5v3.3c0 .7.2 1.2 1 1.2.2 0 .4 0 .6-.1v.9c-.3.1-.6.1-.9.1-1.1 0-1.9-.3-1.9-1.5v-4H191v-.9h1.1v-1.5l1.2-.7v2.2h1.7v.9h-1.7zm3-2.4v-1.3h1.4v1.3h-1.4zm.1 7.8v-6.3h1.2v6.3h-1.2zm6.2-8.3c-.8 0-1.2.6-1.2 1.4v.6h1.9v.9h-1.9v5.3h-1.2v-5.3H199v-.9h1.1v-.7c0-1.6.9-2.2 2.4-2.2.4 0 .9 0 1.3.1v1c-.4-.2-.8-.2-1.2-.2zm3.4 2.9v3.3c0 .7.2 1.2 1 1.2.2 0 .4 0 .6-.1v.9c-.3.1-.6.1-.9.1-1.1 0-1.9-.3-1.9-1.5v-4h-1.1v-.9h1.1v-1.5l1.2-.7v2.2h1.7v.9H206zm6.6 5.4v-1.3c-.3.9-1 1.5-2 1.5-1.3 0-1.7-1-1.7-2.1v-4.3h1.2v4.2c0 .6.2 1 .8 1 1.2 0 1.7-1.6 1.7-2.6v-2.7h1.2v6.3h-1.2zm6.9 0v-4.2c0-.6-.2-1-.8-1-1.2 0-1.7 1.6-1.7 2.6v2.7h-1.2v-6.3h1.2v1.3c.4-.9 1-1.5 2-1.5 1.3 0 1.7 1 1.7 2.1v4.3h-1.2zm4.9 2.8c-.6 0-1.3-.1-1.9-.2v-1.2c.6.3 1.2.5 1.8.5 1.4 0 1.8-.7 1.8-2v-1c-.2.7-1 1.1-1.7 1.1-1.7 0-2.2-1.7-2.2-3.1 0-1.4.5-3.3 2.2-3.3.7 0 1.4.4 1.6 1v-.9h1.2v6.5c.1 1.9-1.1 2.6-2.8 2.6zm.3-8.3c-1.1 0-1.2 1.5-1.2 2.3 0 .8.1 2.2 1.2 2.2 1.1 0 1.4-1.5 1.4-2.4 0-.7-.3-2.1-1.4-2.1zm14 5.5l-.9-2.6h-3.3l-.9 2.6h-1.4l3.1-9.1h1.6l3.1 9.1h-1.3zm-2.5-7.9l-1.3 4.2h2.6l-1.3-4.2zm5.1 7.9v-9.1h1.2v9.1h-1.2zm6.1-8.3c-.8 0-1.2.6-1.2 1.4v.6h1.9v.9h-1.9v5.3H245v-5.3h-1.1v-.9h1.1v-.7c0-1.6.9-2.2 2.4-2.2.4 0 .9 0 1.3.1v1c-.4-.2-.8-.2-1.3-.2zm3 5.6v2.7h-1.2v-6.3h1.2v1.3c.3-.9 1-1.4 1.9-1.4v1.3c-1.5 0-1.9 1.1-1.9 2.4zm3.2-5.1v-1.3h1.4v1.3h-1.4zm.1 7.8v-6.3h1.2v6.3h-1.2zm4-3.6c0 1.4.7 2.8 2.3 2.8.4 0 .8-.1 1.2-.2v.9c-.5.1-1 .2-1.6.2-2.2 0-3.1-1.5-3.1-3.6 0-1.7.8-3 2.6-3 1.5 0 2.3 1.1 2.3 2.5v.3h-3.7zm1.3-1.9c-.5 0-.9.3-1.2.7-.1.1-.1.3-.1.4h2.4c0-.7-.4-1.1-1.1-1.1zm7.3 5.5v-1c-.3.7-1 1.1-1.7 1.1-1.7 0-2.1-1.8-2.1-3.2 0-1.4.4-3.4 2.2-3.4.7 0 1.4.3 1.7 1v-3.7h1.2v9.1h-1.3zm-1.4-5.5c-1.1 0-1.2 1.5-1.2 2.4 0 .8.1 2.4 1.2 2.4 1.1 0 1.4-1.6 1.4-2.4 0-.9-.3-2.4-1.4-2.4zm13.1 5.5l-3.3-4.4v4.4h-1.3v-9.1h1.3v4l3.1-4h1.6l-3.3 4.3 3.6 4.8H278zm3.8-2.7v2.7h-1.2v-6.3h1.2v1.3c.3-.9 1-1.4 1.9-1.4v1.3c-1.5 0-1.9 1.1-1.9 2.4zm6.8 2.7v-1.3c-.3.9-1 1.5-2 1.5-1.3 0-1.7-1-1.7-2.1v-4.3h1.2v4.2c0 .6.2 1 .8 1 1.2 0 1.7-1.6 1.7-2.6v-2.7h1.2v6.3h-1.2zm6.1.1c-.7 0-1.4-.3-1.7-1v3.7h-1.2v-9.1h1.2v.9c.3-.7 1-1.1 1.7-1.1 1.7 0 2.1 1.8 2.1 3.2.1 1.5-.3 3.4-2.1 3.4zm-.4-5.6c-1.1 0-1.3 1.6-1.3 2.4 0 .9.2 2.3 1.4 2.3 1.1 0 1.2-1.5 1.2-2.4 0-.8-.1-2.3-1.3-2.3zm7 5.6c-.7 0-1.4-.3-1.7-1v3.7h-1.2v-9.1h1.2v.9c.3-.7 1-1.1 1.7-1.1 1.7 0 2.1 1.8 2.1 3.2.1 1.5-.3 3.4-2.1 3.4zm-.4-5.6c-1.1 0-1.3 1.6-1.3 2.4 0 .9.2 2.3 1.4 2.3 1.1 0 1.2-1.5 1.2-2.4 0-.8-.1-2.3-1.3-2.3zm12.7 5.5l-3.3-4.4v4.4H309v-9.1h1.3v4l3.1-4h1.6l-3.3 4.3 3.6 4.8h-1.7zm4.7.1c-2 0-2.8-1.4-2.8-3.3 0-1.8.8-3.3 2.8-3.3 2 0 2.8 1.4 2.8 3.3-.1 1.9-.8 3.3-2.8 3.3zm0-5.6c-1.3 0-1.5 1.3-1.5 2.4 0 1 .2 2.4 1.5 2.4s1.4-1.4 1.4-2.4-.1-2.4-1.4-2.4zm4.4 5.5v-9.1h1.2v9.1h-1.2zm3.4 0v-9.1h1.2v9.1h-1.2zm4-3.6c0 1.4.7 2.8 2.3 2.8.4 0 .8-.1 1.2-.2v.9c-.5.1-1 .2-1.6.2-2.2 0-3.1-1.5-3.1-3.6 0-1.7.8-3 2.6-3 1.5 0 2.3 1.1 2.3 2.5v.3h-3.7zm1.3-1.9c-.5 0-.9.3-1.2.7-.1.1-.1.3-.1.4h2.4c0-.7-.5-1.1-1.1-1.1zm5.5 8.3c-.6 0-1.3-.1-1.9-.2v-1.2c.6.3 1.2.5 1.8.5 1.4 0 1.8-.7 1.8-2v-1c-.2.7-1 1.1-1.7 1.1-1.7 0-2.2-1.7-2.2-3.1 0-1.4.5-3.3 2.2-3.3.7 0 1.4.4 1.6 1v-.9h1.2v6.5c.1 1.9-1 2.6-2.8 2.6zm.4-8.3c-1.1 0-1.2 1.5-1.2 2.3 0 .8.1 2.2 1.2 2.2 1.1 0 1.4-1.5 1.4-2.4-.1-.7-.3-2.1-1.4-2.1zm11.8 5.6c-3 0-3.8-2.3-3.8-5 0-2.4.9-4.4 3.6-4.4 1.6 0 3 .8 3 2.6h-1.5c0-1-.6-1.5-1.6-1.5-1.8 0-2.1 1.9-2.1 3.4 0 1.6.2 3.9 2.3 3.9.4 0 1.3-.1 1.5-.4v-2.9h-1.9v-1.1h3.3v4.5c-.7.6-1.9.9-2.8.9zm5.8-2.8v2.7h-1.2v-6.3h1.2v1.3c.3-.9 1-1.4 1.9-1.4v1.3c-1.5 0-1.9 1.1-1.9 2.4zm3.9-.9c0 1.4.7 2.8 2.3 2.8.4 0 .8-.1 1.2-.2v.9c-.5.1-1 .2-1.6.2-2.2 0-3.1-1.5-3.1-3.6 0-1.7.8-3 2.6-3 1.5 0 2.3 1.1 2.3 2.5v.3h-3.7zm1.3-1.9c-.5 0-.9.3-1.2.7-.1.1-.1.3-.1.4h2.4c.1-.7-.4-1.1-1.1-1.1zm3.8-2.3v-1.3h1.4v1.3h-1.4zm.2 7.8v-6.3h1.2v6.3h-1.2zm6.1-8.3c-.8 0-1.2.6-1.2 1.4v.6h1.9v.9H369v5.3h-1.2v-5.3h-1.1v-.9h1.1v-.7c0-1.6.9-2.2 2.4-2.2.4 0 .9 0 1.3.1v1c-.4-.2-.8-.2-1.3-.2zm3 8.4c-.6 0-1.1-.1-1.7-.3v-1c.4.2 1.1.4 1.6.4s1.3-.1 1.3-.8c0-1.1-2.9-1.3-2.9-3.1 0-1.3 1.1-1.8 2.2-1.8.5 0 .9.1 1.4.2v1.1c-.5-.2-.9-.4-1.4-.4-.4 0-1 .2-1 .7 0 1 2.9 1.2 2.9 3.1-.1 1.5-1.2 1.9-2.4 1.9zm9.7-.1h-1.3l-1.3-4.3-1.3 4.3h-1.3l-1.4-6.3h1.1l1 4.5 1.4-4.5h.9l1.4 4.5 1-4.5h1.1l-1.3 6.3zm6 0v-.8c-.3.6-1 .9-1.6.9-1.1 0-1.8-.6-1.8-1.7 0-1.8 2.1-2.1 3.4-2.1v-1.1c0-.1 0-.1-.1-.2-.1-.4-.5-.6-.9-.6-.6 0-1 .4-1 1h-1.2c0-1.4 1.1-1.9 2.3-1.9 1.4 0 2.1.7 2.1 2v4.4h-1.2zm0-2.8h-.2c-.7 0-1.9.3-1.9 1.2 0 .4.3.8.7.8.8 0 1.4-.9 1.4-1.7v-.3zm3.2 2.8v-9.1h1.2v9.1h-1.2zm6.7 0v-1c-.3.7-1 1.1-1.7 1.1-1.7 0-2.1-1.8-2.1-3.2 0-1.4.4-3.4 2.2-3.4.7 0 1.4.3 1.7 1v-3.7h1.2v9.1h-1.3zm-1.4-5.5c-1.1 0-1.2 1.5-1.2 2.4 0 .8.1 2.4 1.2 2.4 1.1 0 1.4-1.6 1.4-2.4 0-.9-.2-2.4-1.4-2.4z"/></svg>